<?xml version="1.0" encoding="UTF-8" standalone="no"?>
<!-- Created with Inkscape (http://www.inkscape.org/) -->

<svg
   version="1.1"
   id="svg1"
   width="323.92133"
   height="186.564"
   viewBox="0 0 323.92133 186.564"
   sodipodi:docname="test.svg"
   inkscape:version="1.3 (0e150ed, 2023-07-21)"
   xmlns:inkscape="http://www.inkscape.org/namespaces/inkscape"
   xmlns:sodipodi="http://sodipodi.sourceforge.net/DTD/sodipodi-0.dtd"
   xmlns="http://www.w3.org/2000/svg"
   xmlns:svg="http://www.w3.org/2000/svg">
  <defs
     id="defs1" />
  <sodipodi:namedview
     id="namedview1"
     pagecolor="#ffffff"
     bordercolor="#000000"
     borderopacity="0.25"
     inkscape:showpageshadow="2"
     inkscape:pageopacity="0.0"
     inkscape:pagecheckerboard="0"
     inkscape:deskcolor="#d1d1d1"
     inkscape:zoom="1.2649815"
     inkscape:cx="162.0577"
     inkscape:cy="93.281995"
     inkscape:window-width="1408"
     inkscape:window-height="449"
     inkscape:window-x="0"
     inkscape:window-y="38"
     inkscape:window-maximized="0"
     inkscape:current-layer="g1">
    <inkscape:page
       x="0"
       y="0"
       inkscape:label="1"
       id="page1"
       width="323.92133"
       height="186.564"
       margin="0"
       bleed="0" />
  </sodipodi:namedview>
  <g
     id="g1"
     inkscape:groupmode="layer"
     inkscape:label="1">
    <path
       id="path1"
       d="m 0.16376562,-6.6800859 v 1.7578125 h 0.6796875 L 1.0075156,-5.9886797 1.1598594,-6.1175859 h 1.1953125 v 5.41406246 l -0.1640625,0.1640625 -0.6445313,0.046875 V -3.984375e-4 H 4.5231406 V -0.49258594 l -0.6445312,-0.046875 -0.1757813,-0.1640625 V -6.1175859 h 1.1953125 l 0.1523438,0.1289062 0.1640625,1.0664063 h 0.6914062 v -1.7578125 z m 7.47363278,-0.6796875 -1.4648437,0.46875 v 0.3867187 h 0.7265625 v 5.87109376 l -0.140625,0.140625 -0.515625,0.046875 V -3.984375e-4 H 8.7038047 V -0.44571094 l -0.4335938,-0.046875 -0.1523437,-0.140625 V -3.9261797 c 0.3867187,-0.1054687 0.703125,-0.1640625 0.9609375,-0.1640625 0.6210937,0 0.890625,0.3398438 0.890625,1.0664063 v 2.39062496 l -0.140625,0.140625 -0.421875,0.046875 V -3.984375e-4 H 11.84443 V -0.44571094 l -0.527344,-0.046875 -0.128906,-0.140625 V -3.3050859 c 0,-1.1132813 -0.445313,-1.6523438 -1.3593753,-1.6523438 -0.4570313,0 -0.9960938,0.2109375 -1.7109375,0.609375 v -3.0117187 z m 9.2050786,6.1289062 c -0.574219,0.36328126 -1.113282,0.53906251 -1.640625,0.53906251 -0.984375,0 -1.605469,-0.66796871 -1.605469,-1.81640621 0,-0.011719 0,-0.023437 0,-0.035156 h 3.257812 c 0,-0.058594 0,-0.1289062 0,-0.1875 0,-1.4296875 -0.761718,-2.25 -2.074218,-2.25 -1.429688,0 -2.460938,1.0429688 -2.460938,2.5664063 0,1.51171871 0.984375,2.50781246 2.460938,2.50781246 0.703125,0 1.394531,-0.19921875 2.0625,-0.59765625 z m -1.289063,-1.8398437 h -1.898437 c 0.02344,-0.8671875 0.433593,-1.359375 1.03125,-1.359375 0.550781,0 0.867187,0.421875 0.867187,1.2539062 0,0.035156 0,0.070312 0,0.1054688 z m 4.576172,-1.8984375 c -1.570313,0 -2.589844,1.0195312 -2.589844,2.5429687 0,1.51171876 1.007813,2.50781251 2.507813,2.50781251 1.570312,0 2.578125,-1.0078125 2.578125,-2.48437501 0,-1.5820312 -0.972657,-2.5664062 -2.496094,-2.5664062 z m -0.04687,0.5273437 c 0.714844,0 1.171875,0.703125 1.171875,2.015625 0,1.2890625 -0.445313,1.98046876 -1.183594,1.98046876 -0.691406,0 -1.136719,-0.71484376 -1.136719,-2.01562496 0,-1.2890625 0.445313,-1.9804688 1.148438,-1.9804688 z m 3.134766,4.4414062625 h 2.742187 V -0.44571094 l -0.703125,-0.046875 -0.152344,-0.140625 V -3.4925859 c 0.316407,-0.1992188 0.550782,-0.28125 0.714844,-0.28125 0.28125,0 0.492188,0.1054687 0.644531,0.3515625 H 26.9792 l 0.128907,-1.3710938 c -0.222657,-0.1054687 -0.433594,-0.1640625 -0.65625,-0.1640625 -0.07031,0 -0.152344,0.011719 -0.222657,0.011719 -0.410156,0.2929687 -0.808593,0.6328125 -1.160156,1.0195312 l 0.03516,-1.0195312 h -0.480468 l -1.464844,0.46875 v 0.3984375 h 0.726562 v 3.44531246 l -0.140625,0.140625 -0.527343,0.046875 z M 27.081734,-4.8402422 v 0.421875 l 0.597657,0.09375 1.769531,4.44140626 C 29.202828,0.71444531 28.933297,1.1246016 28.675484,1.3355391 L 27.808297,0.73788281 c -0.328125,0.1640625 -0.527344,0.42187499 -0.527344,0.70312499 0,0.3867188 0.375,0.7382813 0.867188,0.7382813 0.65625,0 1.359375,-0.65625 1.851562,-1.82812504 l 1.921875,-4.67578126 0.539063,-0.09375 v -0.421875 h -1.921875 v 0.421875 l 0.527343,0.070312 0.09375,0.140625 -1.089843,2.8125 -1.066407,-2.8242187 0.09375,-0.1289063 0.515625,-0.070312 v -0.421875 z m 0,0"
       style="fill:#000000;fill-opacity:1;fill-rule:nonzero;stroke:none"
       aria-label="Theory"
       transform="matrix(1.3333333,0,0,1.3333333,140.46133,21.856)" />
    <path
       id="path2"
       d="M 0.29339063,-0.00111719 H 3.2230781 v -0.4921875 l -0.703125,-0.046875 -0.1523437,-0.1640625 V -2.4972109 c 0.3046875,0.023437 0.5273437,0.035156 0.6796875,0.035156 1.6757812,0 2.6132812,-0.8320312 2.6132812,-2.2148437 0,-1.4296875 -0.8789062,-2.0039063 -2.71875,-2.0039063 H 0.24651563 v 0.4804688 l 0.65625,0.058594 0.15234377,0.1289063 v 5.30859371 l -0.17578127,0.1640625 -0.5859375,0.046875 z M 2.3676094,-3.0597109 v -3.046875 h 0.5273437 c 0.9023438,0 1.3945313,0.5273437 1.3945313,1.4765625 0,1.0546875 -0.5273438,1.59375 -1.5585938,1.59375 -0.1054687,0 -0.234375,-0.011719 -0.3632812,-0.023437 z m 3.7734375,3.05859371 h 2.7421875 v -0.4453125 l -0.703125,-0.046875 -0.1523438,-0.140625 V -3.4933047 c 0.3164063,-0.1992187 0.5507813,-0.28125 0.7148438,-0.28125 0.28125,0 0.4921875,0.1054688 0.6445312,0.3515625 h 0.515625 L 10.031672,-4.7940859 C 9.8090156,-4.8995547 9.5980781,-4.9581484 9.3754219,-4.9581484 c -0.070312,0 -0.1523438,0.011719 -0.2226563,0.011719 -0.4101562,0.2929688 -0.8085937,0.6328125 -1.1601562,1.0195313 l 0.035156,-1.0195313 H 7.5472969 l -1.4648438,0.46875 v 0.3984375 h 0.7265625 v 3.44531251 l -0.140625,0.140625 -0.5273437,0.046875 z M 14.930109,-1.2315859 c -0.574218,0.36328121 -1.113281,0.53906246 -1.640625,0.53906246 -0.984375,0 -1.605468,-0.66796876 -1.605468,-1.81640626 0,-0.011719 0,-0.023437 0,-0.035156 h 3.257812 c 0,-0.058594 0,-0.1289063 0,-0.1875 0,-1.4296875 -0.761719,-2.25 -2.074219,-2.25 -1.429687,0 -2.460937,1.0429687 -2.460937,2.5664062 0,1.51171876 0.984375,2.50781251 2.460937,2.50781251 0.703125,0 1.394532,-0.19921875 2.0625,-0.59765625 z m -1.289062,-1.8398438 h -1.898438 c 0.02344,-0.8671875 0.433594,-1.359375 1.03125,-1.359375 0.550782,0 0.867188,0.421875 0.867188,1.2539063 0,0.035156 0,0.070312 0,0.1054687 z M 19.143,-6.4933047 v 1.6054688 c -0.363281,-0.058594 -0.667969,-0.09375 -0.9375,-0.09375 -1.511719,0 -2.578125,1.0664062 -2.578125,2.671875 0,1.42968746 0.820312,2.40234371 1.933594,2.40234371 0.515625,0 1.007812,-0.234375 1.582031,-0.65625 v 0.5625 h 1.863281 v -0.43359375 l -0.515625,-0.046875 -0.140625,-0.15234375 V -7.3604922 H 19.893 l -1.476563,0.46875 v 0.3984375 z m 0,5.54296876 c -0.328125,0.1171875 -0.597656,0.1875 -0.84375,0.1875 -0.820313,0 -1.335938,-0.64453126 -1.335938,-1.75781246 0,-1.1835938 0.597657,-1.8984375 1.441407,-1.8984375 0.210937,0 0.445312,0.046875 0.738281,0.140625 z m 3.673828,-6.25781246 c -0.410156,0 -0.714844,0.3164062 -0.714844,0.7382812 0,0.4453125 0.328125,0.7382813 0.726563,0.7382813 0.410156,0 0.726562,-0.3046875 0.726562,-0.75 0,-0.4101563 -0.292968,-0.7265625 -0.738281,-0.7265625 z m 0.105469,2.2617187 -1.40625,0.46875 v 0.3984375 h 0.65625 v 3.44531251 l -0.140625,0.140625 -0.527344,0.046875 v 0.4453125 h 2.601563 v -0.4453125 l -0.550782,-0.046875 -0.152343,-0.140625 V -4.9464297 Z m 5.932617,4.50000001 V -1.1612734 c -0.480469,0.30468746 -0.949219,0.45703121 -1.382812,0.45703121 -0.925782,0 -1.535157,-0.71484371 -1.535157,-1.91015621 0,-1.1367188 0.609375,-1.8515625 1.3125,-1.8515625 0.07031,0 0.140625,0.011719 0.246094,0.035156 v 1.0546875 c 0.175781,0.1289063 0.363281,0.1875 0.585938,0.1875 0.433593,0 0.714843,-0.2929687 0.714843,-0.6796875 0,-0.609375 -0.609375,-1.078125 -1.640625,-1.078125 -1.488281,0 -2.566406,1.0546875 -2.566406,2.578125 0,1.44140626 0.949219,2.44921876 2.390625,2.44921876 0.632813,0 1.242188,-0.1875 1.875,-0.52734355 z m 0.958008,-3.67968751 v 2.8945313 c 0,0.51562496 0.01172,0.83203121 0.363281,1.06640621 0.234375,0.15234375 0.503906,0.2109375 0.832031,0.2109375 0.398438,0 0.925782,-0.09375 1.523438,-0.31640625 v -0.48046875 c -0.199219,0.046875 -0.410156,0.0703125 -0.65625,0.0703125 -0.65625,0 -0.820313,-0.2578125 -0.820313,-0.96093751 v -2.484375 h 1.476563 v -0.5976562 h -1.476563 v -1.2304688 h -0.632812 l -0.515625,1.03125 -0.738281,0.421875 v 0.375 z m 4.353515,-3.0820312 c -0.410156,0 -0.714843,0.3164062 -0.714843,0.7382812 0,0.4453125 0.328125,0.7382813 0.726562,0.7382813 0.410156,0 0.726563,-0.3046875 0.726563,-0.75 0,-0.4101563 -0.292969,-0.7265625 -0.738282,-0.7265625 z m 0.105469,2.2617187 -1.40625,0.46875 v 0.3984375 h 0.65625 v 3.44531251 l -0.140625,0.140625 -0.527344,0.046875 v 0.4453125 H 35.4555 v -0.4453125 l -0.550781,-0.046875 -0.152344,-0.140625 V -4.9464297 Z m 4.268555,-0.023437 c -1.570313,0 -2.589844,1.0195313 -2.589844,2.5429688 0,1.51171871 1.007813,2.50781246 2.507813,2.50781246 1.570312,0 2.578125,-1.0078125 2.578125,-2.48437496 0,-1.5820313 -0.972657,-2.5664063 -2.496094,-2.5664063 z m -0.04687,0.5273438 c 0.714844,0 1.171875,0.703125 1.171875,2.015625 0,1.2890625 -0.445313,1.98046871 -1.183594,1.98046871 -0.691406,0 -1.136719,-0.71484371 -1.136719,-2.01562501 0,-1.2890625 0.445313,-1.9804687 1.148438,-1.9804687 z m 3.146484,4.44140621 h 2.460938 v -0.4453125 l -0.433594,-0.046875 -0.140625,-0.140625 V -3.9268984 c 0.375,-0.1054688 0.703125,-0.1640625 0.949219,-0.1640625 0.621094,0 0.890625,0.3398437 0.890625,1.0664062 v 2.39062501 l -0.140625,0.140625 -0.421875,0.046875 v 0.4453125 h 2.4375 v -0.4453125 l -0.527344,-0.046875 -0.128906,-0.140625 V -3.3058047 c 0,-1.1132812 -0.433594,-1.6523437 -1.359375,-1.6523437 -0.433594,0 -0.996094,0.2109375 -1.699219,0.609375 V -4.9464297 H 43.04632 l -1.429687,0.46875 v 0.3984375 h 0.679687 v 3.44531251 l -0.140625,0.140625 -0.515625,0.046875 z m 0,0"
       style="fill:#000000;fill-opacity:1;fill-rule:nonzero;stroke:none"
       aria-label="Prediction"
       transform="matrix(1.3333333,0,0,1.3333333,205.976,98.841333)" />
    <path
       id="path3"
       d="m 0.40911719,-3.3748203 c 0,2.1210937 1.35937501,3.53906249 3.42187501,3.53906249 0.84375,0 1.640625,-0.31640625 2.25,-0.87890625 0.6914062,-0.64453124 1.0546875,-1.54687504 1.0546875,-2.60156254 0,-1.125 -0.4101563,-2.0859375 -1.1835938,-2.7421875 -0.609375,-0.515625 -1.3359375,-0.7734375 -2.1914062,-0.7734375 -0.9257813,0 -1.6992188,0.2929688 -2.3320313,0.8671875 -0.66796871,0.6210938 -1.01953121,1.5 -1.01953121,2.5898438 z M 3.7841172,-6.1990391 c 1.0898437,0 1.8632812,1.0664063 1.8632812,2.90625 0,1.7695313 -0.7851562,2.84765629 -1.8867187,2.84765629 -1.0664063,0 -1.8632813,-1.07812499 -1.8632813,-2.90624999 0,-1.7929688 0.7851563,-2.8476563 1.8867188,-2.8476563 z m 5.2675781,-1.1601562 -1.4648437,0.46875 v 0.3867187 h 0.7148437 v 6.49218754 l 1.1015625,0.0234375 c 0.09375,0 0.1875,0 0.2695313,0 0.7734379,0 1.3242189,-0.08203125 1.6992189,-0.24609375 1.019531,-0.45703125 1.570312,-1.31249999 1.570312,-2.46093749 0,-1.3476563 -0.832031,-2.2617188 -1.957031,-2.2617188 -0.445312,0 -0.914062,0.140625 -1.4531249,0.4453125 v -2.8476562 z m 0.4804688,6.82031249 V -4.1013828 c 0.2460937,-0.046875 0.4570312,-0.082031 0.6328129,-0.082031 0.914062,0 1.441406,0.609375 1.441406,1.7460938 0,1.3007812 -0.550781,1.91015624 -1.7578127,1.91015624 -0.09375,0 -0.1992187,0 -0.3164062,-0.0117191 z M 17.178648,-4.7341953 c -0.515625,-0.1640625 -1.007812,-0.2460938 -1.511718,-0.2460938 -1.21875,0 -1.945313,0.6328125 -1.945313,1.4882813 0,0.5976562 0.375,0.9375 1.113281,1.3125 0.773438,0.3867187 1.3125,0.4804687 1.3125,1.0195312 0,0.44531254 -0.304687,0.72656254 -0.84375,0.72656254 -0.304687,0 -0.574218,-0.0703125 -0.832031,-0.2109375 L 14.366148,-0.76153906 14.26068,-1.6170078 h -0.609375 v 1.47656249 c 0.621093,0.17578125 1.160156,0.24609375 1.640625,0.24609375 1.289062,0 2.039062,-0.6328125 2.039062,-1.64062504 0,-0.7148437 -0.574219,-0.984375 -1.464844,-1.4179687 -0.585937,-0.28125 -0.925781,-0.4570313 -0.925781,-0.8671875 0,-0.375 0.269531,-0.5976563 0.761719,-0.5976563 0.234375,0 0.445312,0.058594 0.65625,0.1523438 l 0.117187,0.1171875 0.105469,0.7382812 h 0.597656 z m 5.402344,3.5039062 c -0.574219,0.36328129 -1.113281,0.53906254 -1.640625,0.53906254 -0.984375,0 -1.605469,-0.66796874 -1.605469,-1.81640624 0,-0.011719 0,-0.023437 0,-0.035156 h 3.257813 c 0,-0.058594 0,-0.1289062 0,-0.1875 0,-1.4296875 -0.761719,-2.25 -2.074219,-2.25 -1.429687,0 -2.460937,1.0429688 -2.460937,2.5664063 0,1.51171874 0.984375,2.50781249 2.460937,2.50781249 0.703125,0 1.394531,-0.19921875 2.0625,-0.59765625 z M 21.29193,-3.0701328 h -1.898438 c 0.02344,-0.8671875 0.433594,-1.359375 1.03125,-1.359375 0.550781,0 0.867188,0.421875 0.867188,1.2539062 0,0.035156 0,0.070312 0,0.1054688 z m 1.916015,3.0703124875 h 2.742188 V -0.44513281 l -0.703125,-0.046875 -0.152344,-0.140625 V -3.4920078 c 0.316406,-0.1992188 0.550781,-0.28125 0.714844,-0.28125 0.28125,0 0.492187,0.1054687 0.644531,0.3515625 h 0.515625 l 0.128906,-1.3710938 c -0.222656,-0.1054687 -0.433593,-0.1640625 -0.65625,-0.1640625 -0.07031,0 -0.152343,0.011719 -0.222656,0.011719 -0.410156,0.2929687 -0.808594,0.6328125 -1.160156,1.0195312 l 0.03516,-1.0195312 h -0.480469 l -1.464843,0.46875 v 0.3984375 h 0.726562 v 3.44531249 l -0.140625,0.140625 -0.527344,0.046875 z M 27.048766,-4.8513828 v 0.4570312 l 0.597656,0.058594 1.59375,4.3359374875 h 0.890625 l 1.722656,-4.3242187875 0.574219,-0.070312 v -0.4570312 h -1.898438 v 0.4570312 l 0.515625,0.046875 0.08203,0.140625 -1.136719,2.90625 -1.042969,-2.9179687 0.117188,-0.1289063 0.515625,-0.046875 v -0.4570312 z m 8.592773,4.28906249 0.128906,0.5624999975 h 1.769532 V -0.43341406 l -0.527344,-0.0585938 -0.128906,-0.140625 V -3.2107578 c 0,-1.2773438 -0.46875,-1.7578125 -1.863282,-1.7578125 -1.3125,0 -2.167968,0.5859375 -2.167968,1.1484375 0,0.2695312 0.152343,0.375 0.457031,0.375 h 0.914062 v -0.9375 c 0.175782,-0.035156 0.328125,-0.058594 0.480469,-0.058594 0.65625,0 0.9375,0.3164063 0.9375,1.03125 v 0.3046875 c -2.074219,0.46875 -3.023437,0.75 -3.023437,1.8984375 0,0.76171879 0.539062,1.30078129 1.300781,1.30078129 0.539062,0 1.078125,-0.234375 1.722656,-0.6562498 z m 0,-0.41015625 c -0.398437,0.19921875 -0.714844,0.29296875 -0.972656,0.29296875 -0.457031,0 -0.738281,-0.28125 -0.738281,-0.74999999 0,-0.65625 0.527343,-0.9140625 1.710937,-1.171875 z m 2.830078,-3.15234374 v 2.8945312 c 0,0.51562504 0.01172,0.83203129 0.363281,1.06640629 0.234375,0.15234375 0.503907,0.2109375 0.832032,0.2109375 0.398437,0 0.925781,-0.09375 1.523437,-0.31640625 v -0.48046875 c -0.199219,0.046875 -0.410156,0.0703125 -0.65625,0.0703125 -0.65625,0 -0.820312,-0.2578125 -0.820312,-0.96093749 v -2.484375 h 1.476562 v -0.5976563 h -1.476562 v -1.2304687 h -0.632813 l -0.515625,1.03125 -0.738281,0.421875 v 0.375 z m 4.350586,-3.0820313 c -0.410156,0 -0.714844,0.3164063 -0.714844,0.7382813 0,0.4453125 0.328125,0.7382812 0.726563,0.7382812 0.410156,0 0.726562,-0.3046875 0.726562,-0.75 0,-0.4101562 -0.292968,-0.7265625 -0.738281,-0.7265625 z m 0.105469,2.2617188 -1.40625,0.46875 v 0.3984375 h 0.65625 v 3.44531249 l -0.140625,0.140625 -0.527344,0.046875 V 1.796875e-4 h 2.601563 V -0.44513281 l -0.550782,-0.046875 -0.152343,-0.140625 V -4.9451328 Z m 4.268555,-0.023437 c -1.570313,0 -2.589844,1.0195312 -2.589844,2.5429687 0,1.51171879 1.007812,2.50781254 2.507812,2.50781254 1.570313,0 2.578125,-1.0078125 2.578125,-2.48437504 0,-1.5820312 -0.972656,-2.5664062 -2.496093,-2.5664062 z m -0.04687,0.5273437 c 0.714843,0 1.171875,0.703125 1.171875,2.015625 0,1.2890625 -0.445313,1.98046879 -1.183594,1.98046879 -0.691406,0 -1.136719,-0.71484379 -1.136719,-2.01562499 0,-1.2890625 0.445313,-1.9804688 1.148438,-1.9804688 z m 3.146484,4.4414062875 h 2.460937 V -0.44513281 l -0.433593,-0.046875 -0.140625,-0.140625 V -3.9256016 c 0.375,-0.1054687 0.703125,-0.1640625 0.949218,-0.1640625 0.621094,0 0.890625,0.3398438 0.890625,1.0664063 v 2.39062499 l -0.140625,0.140625 -0.421875,0.046875 V 1.796875e-4 h 2.4375 V -0.44513281 l -0.527343,-0.046875 -0.128907,-0.140625 V -3.3045078 c 0,-1.1132813 -0.433593,-1.6523438 -1.359375,-1.6523438 -0.433593,0 -0.996093,0.2109375 -1.699218,0.609375 v -0.5976562 h -0.480469 l -1.429688,0.46875 v 0.3984375 h 0.679688 v 3.44531249 l -0.140625,0.140625 -0.515625,0.046875 z m 0,0"
       style="fill:#000000;fill-opacity:1;fill-rule:nonzero;stroke:none"
       aria-label="Observation"
       transform="matrix(1.3333333,0,0,1.3333333,124.61467,174.37867)" />
    <path
       id="path4"
       d="M 0.29398438,6.171875e-4 H 3.2236719 V -0.49157031 l -0.703125,-0.046875 -0.1523438,-0.1640625 V -2.4954766 c 0.3046875,0.023437 0.5273438,0.035156 0.6796875,0.035156 1.6757813,0 2.6132813,-0.8320313 2.6132813,-2.2148438 0,-1.4296875 -0.8789063,-2.0039062 -2.71875,-2.0039062 H 0.24710938 v 0.4804687 l 0.65625,0.058594 0.15234372,0.1289062 v 5.30859379 l -0.17578122,0.1640625 -0.5859375,0.046875 z M 2.3682031,-3.0579766 v -3.046875 h 0.5273438 c 0.9023437,0 1.3945312,0.5273438 1.3945312,1.4765625 0,1.0546875 -0.5273437,1.59375 -1.5585937,1.59375 -0.1054688,0 -0.234375,-0.011719 -0.3632813,-0.023437 z M 8.9014063,-0.56188281 9.0303125,6.171875e-4 H 10.799844 V -0.43297656 l -0.527344,-0.0585938 -0.128906,-0.140625 V -3.2103203 c 0,-1.2773438 -0.4687502,-1.7578125 -1.8632815,-1.7578125 -1.3125,0 -2.1679687,0.5859375 -2.1679687,1.1484375 0,0.2695312 0.1523437,0.375 0.4570312,0.375 h 0.9140625 v -0.9375 c 0.1757813,-0.035156 0.328125,-0.058594 0.4804688,-0.058594 0.65625,0 0.9375,0.3164063 0.9375,1.03125 v 0.3046875 c -2.0742188,0.46875 -3.0234375,0.75 -3.0234375,1.8984375 0,0.76171879 0.5390625,1.30078129 1.3007812,1.30078129 0.5390625,0 1.078125,-0.234375 1.7226563,-0.6562498 z m 0,-0.41015625 c -0.3984375,0.19921875 -0.7148438,0.29296875 -0.9726563,0.29296875 -0.4570312,0 -0.7382812,-0.28125 -0.7382812,-0.74999999 0,-0.65625 0.5273437,-0.9140625 1.7109375,-1.171875 z M 11.731484,-4.1243828 v 2.8945312 c 0,0.51562504 0.01172,0.83203129 0.363282,1.06640629 0.234375,0.15234375 0.503906,0.2109375 0.832031,0.2109375 0.398437,0 0.925781,-0.09375 1.523437,-0.31640625 v -0.48046875 c -0.199218,0.046875 -0.410156,0.0703125 -0.65625,0.0703125 -0.65625,0 -0.820312,-0.2578125 -0.820312,-0.96093749 v -2.484375 h 1.476562 v -0.5976563 h -1.476562 v -1.2304687 h -0.632813 l -0.515625,1.03125 -0.738281,0.421875 v 0.375 z m 3.56543,0 v 2.8945312 c 0,0.51562504 0.01172,0.83203129 0.363281,1.06640629 0.234375,0.15234375 0.503907,0.2109375 0.832032,0.2109375 0.398437,0 0.925781,-0.09375 1.523437,-0.31640625 v -0.48046875 c -0.199219,0.046875 -0.410156,0.0703125 -0.65625,0.0703125 -0.65625,0 -0.820312,-0.2578125 -0.820312,-0.96093749 v -2.484375 h 1.476562 v -0.5976563 h -1.476562 v -1.2304687 h -0.632813 l -0.515625,1.03125 -0.738281,0.421875 v 0.375 z m 7.623047,2.8945312 c -0.574219,0.36328129 -1.113281,0.53906254 -1.640625,0.53906254 -0.984375,0 -1.605469,-0.66796874 -1.605469,-1.81640624 0,-0.011719 0,-0.023437 0,-0.035156 h 3.257813 c 0,-0.058594 0,-0.1289062 0,-0.1875 0,-1.4296875 -0.761719,-2.25 -2.074219,-2.25 -1.429688,0 -2.460938,1.0429688 -2.460938,2.5664063 0,1.51171874 0.984375,2.50781249 2.460938,2.50781249 0.703125,0 1.394531,-0.19921875 2.0625,-0.59765625 z m -1.289063,-1.8398437 h -1.898437 c 0.02344,-0.8671875 0.433594,-1.359375 1.03125,-1.359375 0.550781,0 0.867187,0.421875 0.867187,1.2539062 0,0.035156 0,0.070312 0,0.1054688 z m 1.916016,3.0703124875 h 2.742188 V -0.44469531 l -0.703125,-0.046875 -0.152344,-0.140625 V -3.4915703 c 0.316406,-0.1992188 0.550781,-0.28125 0.714844,-0.28125 0.28125,0 0.492187,0.1054687 0.644531,0.3515625 h 0.515625 l 0.128906,-1.3710938 c -0.222656,-0.1054687 -0.433594,-0.1640625 -0.65625,-0.1640625 -0.07031,0 -0.152344,0.011719 -0.222656,0.011719 -0.410156,0.2929687 -0.808594,0.6328125 -1.160156,1.0195312 l 0.03516,-1.0195312 h -0.480469 l -1.464844,0.46875 v 0.3984375 h 0.726563 v 3.44531249 l -0.140625,0.140625 -0.527344,0.046875 z m 4.204102,0 h 2.460937 V -0.44469531 l -0.433594,-0.046875 -0.140625,-0.140625 V -3.9251641 c 0.375,-0.1054687 0.703125,-0.1640625 0.949219,-0.1640625 0.621094,0 0.890625,0.3398438 0.890625,1.0664063 v 2.39062499 l -0.140625,0.140625 -0.421875,0.046875 V 6.171875e-4 h 2.4375 V -0.44469531 l -0.527344,-0.046875 -0.128906,-0.140625 V -3.3040703 c 0,-1.1132813 -0.433594,-1.6523438 -1.359375,-1.6523438 -0.433594,0 -0.996094,0.2109375 -1.699219,0.609375 v -0.5976562 h -0.480468 l -1.429688,0.46875 v 0.3984375 h 0.679688 v 3.44531249 l -0.140625,0.140625 -0.515625,0.046875 z m 0,0"
       style="fill:#000000;fill-opacity:1;fill-rule:nonzero;stroke:none"
       aria-label="Pattern"
       transform="matrix(1.3333333,0,0,1.3333333,64.053333,98.409333)" />
    <path
       id="path5"
       d="M 23.95999,51.38205 C 40.72093,43.56625 52.62157,28.05736 55.02335,14.43616"
       style="fill:none;stroke:#d55e00;stroke-width:0.79701;stroke-linecap:butt;stroke-linejoin:miter;stroke-miterlimit:10;stroke-dasharray:none;stroke-opacity:1"
       transform="matrix(1.3333333,0,0,-1.3333333,161.96133,93.952)" />
    <path
       id="path6"
       d="M 4.66248,0 C 3.28098,0.25902 1.0361,1.0361 -0.51805,1.94269 V -1.94269 C 1.0361,-1.0361 3.28098,-0.25902 4.66248,0"
       style="fill:#d55e00;fill-opacity:1;fill-rule:nonzero;stroke:none"
       transform="matrix(0.23150667,1.3130667,1.3130667,-0.23150667,235.32577,74.703787)" />
    <path
       id="path7"
       d="M 55.83287,-9.84454 C 52.9232,-26.34665 42.8584,-40.72 32.38455,-46.76709"
       style="fill:none;stroke:#d55e00;stroke-width:0.79701;stroke-linecap:butt;stroke-linejoin:miter;stroke-miterlimit:10;stroke-dasharray:none;stroke-opacity:1"
       transform="matrix(1.3333333,0,0,-1.3333333,161.96133,93.952)" />
    <path
       id="path8"
       d="M 4.66248,0 C 3.28098,0.25902 1.0361,1.0361 -0.51805,1.94269 V -1.94269 C 1.0361,-1.0361 3.28098,-0.25902 4.66248,0"
       style="fill:#d55e00;fill-opacity:1;fill-rule:nonzero;stroke:none"
       transform="matrix(-1.15468,0.66664,0.66664,1.15468,205.14076,156.30812)" />
    <path
       id="path9"
       d="m -28.3468,-49.09825 c -14.5116,8.37825 -24.5764,22.7516 -26.67655,34.66209"
       style="fill:none;stroke:#0072b2;stroke-width:0.79701;stroke-linecap:butt;stroke-linejoin:miter;stroke-miterlimit:10;stroke-dasharray:none;stroke-opacity:1"
       transform="matrix(1.3333333,0,0,-1.3333333,161.96133,93.952)" />
    <path
       id="path10"
       d="M 4.66248,0 C 3.28098,0.25902 1.0361,1.0361 -0.51805,1.94269 V -1.94269 C 1.0361,-1.0361 3.28098,-0.25902 4.66248,0"
       style="fill:#0072b2;fill-opacity:1;fill-rule:nonzero;stroke:none"
       transform="matrix(-0.23150667,-1.3130667,-1.3130667,0.23150667,88.596893,113.20021)" />
    <path
       id="path11"
       d="m -55.83287,9.84454 c 3.2113,18.21282 15.11194,33.72171 27.64729,39.56713"
       style="fill:none;stroke:#0072b2;stroke-width:0.79701;stroke-linecap:butt;stroke-linejoin:miter;stroke-miterlimit:10;stroke-dasharray:none;stroke-opacity:1"
       transform="matrix(1.3333333,0,0,-1.3333333,161.96133,93.952)" />
    <path
       id="path12"
       d="M 4.66248,0 C 3.28098,0.25902 1.0361,1.0361 -0.51805,1.94269 V -1.94269 C 1.0361,-1.0361 3.28098,-0.25902 4.66248,0"
       style="fill:#0072b2;fill-opacity:1;fill-rule:nonzero;stroke:none"
       transform="matrix(1.2084,-0.56346667,-0.56346667,-1.2084,124.38053,28.0698)" />
    <path
       id="path13"
       d="M -99.21382,52.03113 V -56.69362"
       style="fill:none;stroke:#0072b2;stroke-width:0.79701;stroke-linecap:butt;stroke-linejoin:miter;stroke-miterlimit:10;stroke-dasharray:none;stroke-opacity:1"
       transform="matrix(1.3333333,0,0,-1.3333333,161.96133,93.952)" />
    <path
       id="path14"
       d="M 4.66248,0 C 3.28098,0.25902 1.0361,1.0361 -0.51805,1.94269 V -1.94269 C 1.0361,-1.0361 3.28098,-0.25902 4.66248,0"
       style="fill:#0072b2;fill-opacity:1;fill-rule:nonzero;stroke:none"
       transform="matrix(0,-1.3333333,-1.3333333,0,29.67624,24.57716)" />
    <path
       id="path15"
       d="M 0.35267187,-3.671875e-4 H 2.8722031 V -0.41052344 l -0.6445312,-0.046875 -0.1640625,-0.140625 V -6.0823984 l 0.1640625,-0.140625 0.6445312,-0.058594 V -6.6800547 H 0.35267187 v 0.3984375 l 0.6328125,0.058594 0.17578123,0.140625 v 5.48437496 l -0.17578123,0.140625 -0.6328125,0.046875 z m 3.17871093,0 H 5.7110703 V -0.36364844 L 5.2306016,-0.41052344 5.0548203,-0.56286719 V -3.9027109 c 0.4335938,-0.2226563 0.796875,-0.328125 1.125,-0.328125 0.7382813,0 0.9960938,0.2929687 0.9960938,1.0195312 v 2.64843751 l -0.1640625,0.15234375 -0.4804688,0.046875 V -3.671875e-4 H 8.7110703 V -0.36364844 L 8.1720078,-0.41052344 8.0079453,-0.56286719 V -3.3753672 c 0,-0.9960937 -0.4804687,-1.5117187 -1.3476562,-1.5117187 -0.421875,0 -0.9375,0.2226562 -1.6054688,0.5976562 v -0.5507812 h -0.375 l -1.1484375,0.3515625 v 0.3164062 h 0.703125 v 3.60937501 l -0.1757812,0.15234375 -0.5273438,0.046875 z M 12.707164,-6.6683359 v 1.875 c -0.316406,-0.070312 -0.609375,-0.1054688 -0.890625,-0.1054688 -1.511719,0 -2.5664062,1.0664063 -2.5664062,2.6601563 0,1.39453121 0.8320312,2.33203121 1.9218752,2.33203121 0.539062,0 1.019531,-0.19921875 1.535156,-0.609375 v 0.5156250025 h 1.464844 V -0.36364844 l -0.46875,-0.046875 -0.175781,-0.15234375 V -7.3363047 h -0.375 l -1.21875,0.3632813 v 0.3046875 z m 0,5.77734371 c -0.375,0.234375 -0.726562,0.3515625 -1.089844,0.3515625 -0.902343,0 -1.5,-0.70312501 -1.5,-1.87500001 0,-1.2421875 0.703125,-2.0507812 1.710938,-2.0507812 0.234375,0 0.539062,0.058594 0.878906,0.1640625 z m 3.225586,-3.99609371 -1.160156,0.3632812 v 0.3046875 h 0.703125 v 2.7890625 c 0,0.99609376 0.480468,1.53515626 1.335937,1.53515626 0.492188,0 1.019531,-0.234375 1.617188,-0.66796875 v 0.5625000025 h 1.476562 V -0.36364844 l -0.46875,-0.046875 -0.175781,-0.15234375 V -4.8870859 h -0.386719 l -1.148437,0.3632812 v 0.3046875 h 0.703125 v 3.38671876 c -0.410157,0.19921875 -0.785157,0.29296875 -1.160157,0.29296875 -0.65625,0 -0.960937,-0.33984375 -0.960937,-1.05468751 v -3.2929687 z m 8.481445,4.46484371 v -0.515625 c -0.410156,0.28125 -0.820312,0.421875 -1.265625,0.421875 -1.03125,0 -1.6875,-0.72656251 -1.6875,-1.95703121 0,-1.2539063 0.609375,-2.015625 1.464844,-2.015625 0.164063,0 0.328125,0.046875 0.480469,0.140625 v 0.8085937 c 0.140625,0.1054688 0.292969,0.1523438 0.445312,0.1523438 0.339844,0 0.550782,-0.2109375 0.550782,-0.5273438 0,-0.5742187 -0.527344,-0.9726562 -1.488282,-0.9726562 -1.394531,0 -2.367187,0.9960937 -2.367187,2.484375 0,1.47656246 0.890625,2.47265621 2.25,2.47265621 0.539062,0 1.078125,-0.17578125 1.617187,-0.4921875 z m 1.092774,-3.77343751 v 3.22265626 c 0,0.703125 0.210937,1.0078125 1.03125,1.0078125 0.386718,0 0.84375,-0.0703125 1.3125,-0.22265625 v -0.375 c -0.234375,0.0585938 -0.46875,0.0820312 -0.691407,0.0820312 -0.703125,0 -0.832031,-0.328125 -0.832031,-1.07812491 v -2.6367188 h 1.523438 v -0.46875 H 26.327281 V -5.7191172 H 25.964 l -0.433594,0.9257813 -0.65625,0.2929687 v 0.3046875 z m 3.984375,-2.859375 c -0.316407,0 -0.574219,0.2460938 -0.574219,0.5742188 0,0.328125 0.257812,0.5742187 0.574219,0.5742187 0.316406,0 0.574218,-0.2460937 0.574218,-0.5742187 0,-0.3164063 -0.257812,-0.5742188 -0.574218,-0.5742188 z m -0.03516,2.2148438 -1.148437,0.3515625 v 0.3164062 h 0.691406 v 3.60937501 l -0.164062,0.15234375 -0.527344,0.046875 v 0.3632812525 h 2.238281 V -0.36364844 l -0.539062,-0.046875 -0.175782,-0.15234375 V -4.8402109 Z m 1.242188,0.046875 v 0.375 l 0.609375,0.058594 1.59375,4.3593750125 h 0.5625 l 1.746094,-4.3476562125 0.585937,-0.070312 v -0.375 h -1.757812 v 0.375 l 0.527343,0.035156 0.08203,0.1640625 -1.277344,3.25781251 -1.160156,-3.25781251 0.117187,-0.1640625 0.527344,-0.035156 v -0.375 z m 9.433594,3.7382812 c -0.574219,0.37500001 -1.066407,0.57421876 -1.570313,0.57421876 -0.996094,0 -1.664062,-0.74999996 -1.664062,-2.02734376 0,-0.035156 0,-0.070312 0,-0.1171875 h 3.222656 c 0.01172,-0.1054687 0.01172,-0.1992187 0.01172,-0.3046875 0,-1.21875 -0.714844,-1.9570312 -1.792969,-1.9570312 -1.335938,0 -2.308594,1.0195312 -2.308594,2.53125 0,1.45312496 0.914063,2.44921871 2.226563,2.44921871 0.632812,0 1.277343,-0.19921875 1.875,-0.59765625 z m -0.890625,-1.9804687 h -2.296875 c 0.05859,-0.8554688 0.621093,-1.40625 1.265625,-1.40625 0.667968,0 1.03125,0.4335937 1.03125,1.2421875 0,0.046875 0,0.1054687 0,0.1640625 z m 4.391601,3.0351562125 H 46.02357 V -0.36364844 l -0.691406,-0.046875 -0.175781,-0.15234375 V -3.4222422 c 0.410156,-0.46875 0.761719,-0.7265625 1.089844,-0.7265625 0.210937,0 0.375,0.082031 0.503906,0.2460938 h 0.328125 v -0.8554688 c -0.210938,-0.09375 -0.398438,-0.1289062 -0.597656,-0.1289062 -0.08203,0 -0.175782,0 -0.257813,0.011719 -0.351562,0.2929688 -0.714844,0.609375 -1.066406,0.9726563 v -0.9375 h -0.375 l -1.148438,0.3515625 v 0.3164062 h 0.703125 v 3.60937501 l -0.175781,0.15234375 -0.527344,0.046875 z M 51.598766,-1.0550547 c -0.574219,0.37500001 -1.066407,0.57421876 -1.570313,0.57421876 -0.996094,0 -1.664062,-0.74999996 -1.664062,-2.02734376 0,-0.035156 0,-0.070312 0,-0.1171875 h 3.222656 c 0.01172,-0.1054687 0.01172,-0.1992187 0.01172,-0.3046875 0,-1.21875 -0.714844,-1.9570312 -1.792969,-1.9570312 -1.335938,0 -2.308594,1.0195312 -2.308594,2.53125 0,1.45312496 0.914063,2.44921871 2.226563,2.44921871 0.632812,0 1.277343,-0.19921875 1.875,-0.59765625 z m -0.890625,-1.9804687 h -2.296875 c 0.05859,-0.8554688 0.621093,-1.40625 1.265625,-1.40625 0.667968,0 1.03125,0.4335937 1.03125,1.2421875 0,0.046875 0,0.1054687 0,0.1640625 z m 4.643554,2.46093746 0.128907,0.5742187525 h 1.40625 V -0.36364844 l -0.527344,-0.046875 -0.1875,-0.15234375 V -3.4573984 c 0,-1.0078125 -0.433594,-1.4296875 -1.476563,-1.4296875 -1.253906,0 -2.015625,0.515625 -2.015625,1.125 0,0.234375 0.08203,0.3046875 0.304688,0.3046875 h 0.691406 v -0.8320313 c 0.269531,-0.1171875 0.503906,-0.1640625 0.761719,-0.1640625 0.714844,0 0.914062,0.328125 0.914062,1.1132813 v 0.3164062 c -1.992187,0.4804688 -2.90625,0.7851563 -2.90625,1.8164063 0,0.74999996 0.480469,1.27734371 1.277344,1.27734371 0.46875,0 0.996094,-0.22265625 1.628906,-0.64453125 z m 0,-0.33984375 c -0.503906,0.28125 -0.902343,0.4453125 -1.230468,0.4453125 -0.503907,0 -0.796875,-0.328125 -0.796875,-0.82031251 0,-0.7265625 0.621093,-0.9960937 2.027343,-1.3828125 z m 5.144532,-3.76171871 c -0.328125,-0.140625 -0.726563,-0.2109375 -1.160157,-0.2109375 -1.136718,0 -1.757812,0.515625 -1.757812,1.3945312 0,0.6679688 0.433594,0.984375 1.277344,1.359375 0.65625,0.3046875 1.019531,0.4804688 1.019531,0.9960938 0,0.46874996 -0.363281,0.80859371 -0.9375,0.80859371 -0.292969,0 -0.5625,-0.0820313 -0.84375,-0.234375 L 57.976695,-1.4183359 h -0.480468 v 1.30078121 c 0.339843,0.12890625 0.785156,0.2109375 1.289062,0.2109375 1.183594,0 1.863281,-0.57421875 1.863281,-1.50000001 0,-0.3632812 -0.140625,-0.6679687 -0.375,-0.8554687 -0.328125,-0.2695313 -0.703125,-0.4101563 -1.054687,-0.5742188 -0.5625,-0.2695312 -0.84375,-0.4804687 -0.84375,-0.9140625 0,-0.4453125 0.292969,-0.7148437 0.820312,-0.7148437 0.234375,0 0.480469,0.070312 0.738282,0.2109375 l 0.08203,0.703125 h 0.480469 z m 3.249023,-0.2109375 c -1.347656,0 -2.320313,0.9960937 -2.320313,2.484375 0,1.47656246 0.984375,2.49609371 2.320313,2.49609371 1.335937,0 2.320312,-1.01953125 2.320312,-2.49609371 0,-1.4765625 -0.984375,-2.484375 -2.320312,-2.484375 z m 0,0.421875 c 0.808594,0 1.382812,0.7734375 1.382812,2.0625 0,1.3007812 -0.574218,2.06249996 -1.382812,2.06249996 -0.796875,0 -1.382813,-0.77343746 -1.382813,-2.06249996 0,-1.2890625 0.574219,-2.0625 1.382813,-2.0625 z m 2.991211,4.4648437125 h 2.179687 V -0.36364844 l -0.480468,-0.046875 -0.175782,-0.15234375 V -3.9027109 c 0.433594,-0.2226563 0.796875,-0.328125 1.125,-0.328125 0.738282,0 0.996094,0.2929687 0.996094,1.0195312 v 2.64843751 l -0.164062,0.15234375 -0.480469,0.046875 v 0.3632812525 h 2.179687 V -0.36364844 l -0.539062,-0.046875 -0.164063,-0.15234375 V -3.3753672 c 0,-0.9960937 -0.480468,-1.5117187 -1.347656,-1.5117187 -0.421875,0 -0.9375,0.2226562 -1.605469,0.5976562 v -0.5507812 h -0.375 l -1.148437,0.3515625 v 0.3164062 h 0.703125 v 3.60937501 l -0.175781,0.15234375 -0.527344,0.046875 z M 73.624156,-7.0550547 c -0.316406,0 -0.574219,0.2460938 -0.574219,0.5742188 0,0.328125 0.257813,0.5742187 0.574219,0.5742187 0.316406,0 0.574219,-0.2460937 0.574219,-0.5742187 0,-0.3164063 -0.257813,-0.5742188 -0.574219,-0.5742188 z m -0.03516,2.2148438 -1.148438,0.3515625 v 0.3164062 h 0.691407 v 3.60937501 l -0.164063,0.15234375 -0.527344,0.046875 V -3.671875e-4 H 74.67884 V -0.36364844 L 74.139781,-0.41052344 73.964,-0.56286719 V -4.8402109 Z m 1.59375,4.8398437125 h 2.179687 V -0.36364844 l -0.480468,-0.046875 -0.175782,-0.15234375 V -3.9027109 c 0.433594,-0.2226563 0.796875,-0.328125 1.125,-0.328125 0.738282,0 0.996094,0.2929687 0.996094,1.0195312 v 2.64843751 l -0.164062,0.15234375 -0.480469,0.046875 v 0.3632812525 h 2.179687 V -0.36364844 l -0.539062,-0.046875 -0.164063,-0.15234375 V -3.3753672 c 0,-0.9960937 -0.480468,-1.5117187 -1.347656,-1.5117187 -0.421875,0 -0.9375,0.2226562 -1.605469,0.5976562 v -0.5507812 h -0.375 l -1.148437,0.3515625 v 0.3164062 h 0.703125 v 3.60937501 l -0.175781,0.15234375 -0.527344,0.046875 z M 84.217906,-4.6175547 c -0.386719,-0.1875 -0.75,-0.2695312 -1.125,-0.2695312 -1.183594,0 -1.933594,0.6679687 -1.933594,1.640625 0,0.75 0.46875,1.3359375 1.230469,1.5 -0.316406,0.3867187 -0.480469,0.6914062 -0.480469,0.94921871 0,0.1640625 0.04687,0.3046875 0.105469,0.4453125 -0.679687,0.1171875 -1.078125,0.59765625 -1.078125,1.2421875 0,0.79687499 0.65625,1.27734379 1.804688,1.27734379 0.75,0 1.441406,-0.2226563 1.96875,-0.65625 0.386718,-0.3164063 0.597656,-0.75000004 0.597656,-1.11328129 0,-0.73828125 -0.515625,-1.04296875 -1.6875,-1.23046875 l -0.960938,-0.140625 c -0.01172,-0.11718746 -0.02344,-0.18749996 -0.02344,-0.24609376 0,-0.1523437 0.04687,-0.3046875 0.117187,-0.4453125 0.05859,0 0.117188,0 0.164063,0 1.160156,0 1.910156,-0.6679687 1.910156,-1.5585937 0,-0.3398438 -0.09375,-0.6328125 -0.28125,-0.9257813 h 1.089844 v -0.46875 z m -1.230469,0.1171875 c 0.574219,0 0.972657,0.46875 0.972657,1.21875 0,0.75 -0.398438,1.2304688 -0.972657,1.2304688 -0.574218,0 -0.972656,-0.4804688 -0.972656,-1.2304688 0,-0.7617187 0.398438,-1.21875 0.972656,-1.21875 z m -0.398437,4.19531251 0.972656,0.1875 c 0.691406,0.12890625 1.007813,0.234375 1.007813,0.7734375 0,0.56249999 -0.597657,1.05468749 -1.476563,1.05468749 -0.820312,0 -1.359375,-0.4570312 -1.359375,-1.03124999 0,-0.4453125 0.304688,-0.80859375 0.855469,-0.984375 z m 0,0"
       style="fill:#0072b2;fill-opacity:1;fill-rule:nonzero;stroke:none"
       aria-label="Inductivereasoning"
       transform="matrix(0,-1.3333333,1.3333333,0,44.465333,151.11867)" />
    <path
       id="path16"
       d="M 0.32892969,3.046875e-4 H 5.4617422 V -1.6286016 h -0.515625 l -0.1757813,1.00781254 -0.140625,0.1640625 H 1.9578359 V -3.2457891 h 1.640625 l 0.140625,0.1523438 0.09375,0.7148437 h 0.46875 v -2.1914062 h -0.46875 l -0.09375,0.7265625 -0.140625,0.140625 h -1.640625 v -2.5195313 h 2.3085938 l 0.140625,0.140625 0.140625,0.8554688 h 0.5507812 v -1.453125 H 0.32892969 v 0.3984375 l 0.57421875,0.058594 0.16406246,0.140625 v 5.48437504 l -0.16406246,0.140625 -0.57421875,0.046875 z M 5.9129141,-4.7926641 v 0.375 l 0.609375,0.1054688 1.3359375,1.9453125 -1.4296875,1.92187499 -0.5742188,0.0820313 V 3.046875e-4 H 7.7410391 V -0.36297656 l -0.5742188,-0.0703125 -0.046875,-0.12890625 1.0195313,-1.44140629 0.9257812,1.48828129 -0.046875,0.0820313 -0.421875,0.0703125 V 3.046875e-4 H 10.717602 V -0.36297656 l -0.597657,-0.0820313 -1.4648434,-2.13281254 1.3125,-1.7460937 0.5625004,-0.09375 v -0.375 H 8.7371328 v 0.375 l 0.4804688,0.058594 0.070312,0.1289062 -0.9023438,1.2773437 -0.8320312,-1.3124999 0.046875,-0.09375 0.4570312,-0.058594 v -0.375 z m 5.0712889,6.9609375 h 2.332031 V 1.8167109 L 12.683422,1.7581172 12.507641,1.6057734 v -1.66406246 c 0.375,0.0585937475 0.679687,0.09375 0.9375,0.09375 1.464843,0 2.449218,-1.01953125 2.449218,-2.58984374 0,-1.3945313 -0.820312,-2.3320313 -1.921875,-2.3320313 -0.46875,0 -0.925781,0.1992188 -1.464843,0.5976563 v -0.5507813 h -0.375 l -1.148438,0.3515625 v 0.3164063 h 0.703125 v 5.7773437 l -0.175781,0.1523438 -0.527344,0.058594 z m 1.523438,-2.74218746 V -3.9254766 c 0.386718,-0.2226562 0.714843,-0.3398437 1.054687,-0.3398437 0.867188,0 1.453125,0.6914062 1.453125,1.8398437 0,1.21875 -0.679687,2.00390629 -1.652344,2.00390629 -0.246093,0 -0.515625,-0.046875 -0.855468,-0.15234375 z m 4.013671,0.5742187475 h 2.332032 V -0.36297656 l -0.574219,-0.046875 -0.175781,-0.15234375 V -7.3356328 h -0.375 l -1.21875,0.3632812 v 0.3046875 h 0.761718 v 6.10546879 l -0.164062,0.15234375 -0.585938,0.046875 z M 21.733227,-4.8864141 c -1.347657,0 -2.320313,0.9960938 -2.320313,2.484375 0,1.47656254 0.984375,2.49609379 2.320313,2.49609379 1.335937,0 2.320312,-1.01953125 2.320312,-2.49609379 0,-1.4765625 -0.984375,-2.484375 -2.320312,-2.484375 z m 0,0.421875 c 0.808593,0 1.382812,0.7734375 1.382812,2.0625 0,1.3007813 -0.574219,2.06250004 -1.382812,2.06250004 -0.796875,0 -1.382813,-0.77343754 -1.382813,-2.06250004 0,-1.2890625 0.574219,-2.0625 1.382813,-2.0625 z m 2.99121,4.4648437875 h 2.390625 V -0.36297656 l -0.691406,-0.046875 -0.175781,-0.15234375 V -3.4215703 c 0.410156,-0.46875 0.761719,-0.7265625 1.089844,-0.7265625 0.210937,0 0.375,0.082031 0.503906,0.2460937 h 0.328125 v -0.8554687 c -0.210938,-0.09375 -0.398438,-0.1289063 -0.597656,-0.1289063 -0.08203,0 -0.175782,0 -0.257813,0.011719 -0.351562,0.2929687 -0.714844,0.609375 -1.066406,0.9726562 v -0.9375 h -0.375 l -1.148438,0.3515625 v 0.3164063 h 0.703125 v 3.60937499 l -0.175781,0.15234375 -0.527344,0.046875 z M 31.553539,-0.57391406 31.682445,3.046875e-4 h 1.40625 V -0.36297656 l -0.527343,-0.046875 -0.1875,-0.15234375 V -3.4567266 c 0,-1.0078125 -0.433594,-1.4296875 -1.476563,-1.4296875 -1.253906,0 -2.015625,0.515625 -2.015625,1.125 0,0.234375 0.08203,0.3046875 0.304688,0.3046875 h 0.691406 v -0.8320312 c 0.269531,-0.1171875 0.503906,-0.1640625 0.761719,-0.1640625 0.714843,0 0.914062,0.328125 0.914062,1.1132812 v 0.3164063 c -1.992187,0.4804687 -2.90625,0.7851562 -2.90625,1.8164062 0,0.75000004 0.480469,1.27734379 1.277344,1.27734379 0.46875,0 0.996094,-0.22265625 1.628906,-0.64453125 z m 0,-0.33984375 c -0.503906,0.28125 -0.902344,0.4453125 -1.230469,0.4453125 -0.503906,0 -0.796875,-0.328125 -0.796875,-0.82031249 0,-0.7265625 0.621094,-0.9960938 2.027344,-1.3828125 z m 2.601563,-3.28124999 v 3.22265624 c 0,0.703125 0.210937,1.0078125 1.03125,1.0078125 0.386718,0 0.84375,-0.0703125 1.3125,-0.22265625 v -0.375 c -0.234375,0.0585938 -0.46875,0.0820313 -0.691407,0.0820313 -0.703125,0 -0.832031,-0.328125 -0.832031,-1.07812499 v -2.6367187 h 1.523438 v -0.46875 h -1.523438 v -1.0546875 h -0.363281 l -0.433594,0.9257812 -0.65625,0.2929688 v 0.3046875 z m 5.129882,-0.6914063 c -1.347656,0 -2.320312,0.9960938 -2.320312,2.484375 0,1.47656254 0.984375,2.49609379 2.320312,2.49609379 1.335938,0 2.320313,-1.01953125 2.320313,-2.49609379 0,-1.4765625 -0.984375,-2.484375 -2.320313,-2.484375 z m 0,0.421875 c 0.808594,0 1.382813,0.7734375 1.382813,2.0625 0,1.3007813 -0.574219,2.06250004 -1.382813,2.06250004 -0.796875,0 -1.382812,-0.77343754 -1.382812,-2.06250004 0,-1.2890625 0.574219,-2.0625 1.382812,-2.0625 z M 42.276195,3.046875e-4 H 44.66682 V -0.36297656 l -0.691406,-0.046875 -0.175781,-0.15234375 V -3.4215703 c 0.410156,-0.46875 0.761719,-0.7265625 1.089844,-0.7265625 0.210937,0 0.375,0.082031 0.503906,0.2460937 h 0.328125 v -0.8554687 c -0.210938,-0.09375 -0.398438,-0.1289063 -0.597656,-0.1289063 -0.08203,0 -0.175782,0 -0.257813,0.011719 -0.351562,0.2929687 -0.714844,0.609375 -1.066406,0.9726562 v -0.9375 h -0.375 l -1.148438,0.3515625 v 0.3164063 h 0.703125 v 3.60937499 l -0.175781,0.15234375 -0.527344,0.046875 z M 45.765453,-4.7926641 v 0.375 l 0.609375,0.058594 1.675781,4.32421874 c -0.246093,0.703125 -0.539062,1.19531246 -0.808593,1.48828126 l -0.960938,-0.375 c -0.164062,0.1523437 -0.257812,0.3398437 -0.257812,0.5390625 0,0.328125 0.269531,0.5507812 0.691406,0.5507812 0.644531,0 1.125,-0.5390625 1.59375,-1.66406246 l 1.992187,-4.85156254 0.574219,-0.070312 v -0.375 h -1.769531 v 0.375 l 0.539062,0.035156 0.08203,0.1640625 -1.253907,3.09375 -1.195312,-3.09375 0.128906,-0.1640625 0.527344,-0.035156 v -0.375 z m 8.018555,4.7929687875 h 2.390625 V -0.36297656 l -0.691406,-0.046875 -0.175782,-0.15234375 V -3.4215703 c 0.410157,-0.46875 0.761719,-0.7265625 1.089844,-0.7265625 0.210938,0 0.375,0.082031 0.503906,0.2460937 h 0.328125 v -0.8554687 c -0.210937,-0.09375 -0.398437,-0.1289063 -0.597656,-0.1289063 -0.08203,0 -0.175781,0 -0.257812,0.011719 -0.351563,0.2929687 -0.714844,0.609375 -1.066407,0.9726562 v -0.9375 h -0.375 l -1.148437,0.3515625 v 0.3164063 h 0.703125 v 3.60937499 l -0.175781,0.15234375 -0.527344,0.046875 z M 61.749828,-1.0543828 c -0.574219,0.37499999 -1.066406,0.57421874 -1.570312,0.57421874 -0.996094,0 -1.664063,-0.75000004 -1.664063,-2.02734374 0,-0.035156 0,-0.070312 0,-0.1171875 h 3.222656 c 0.01172,-0.1054688 0.01172,-0.1992188 0.01172,-0.3046875 0,-1.21875 -0.714844,-1.9570313 -1.792969,-1.9570313 -1.335937,0 -2.308593,1.0195313 -2.308593,2.53125 0,1.45312504 0.914062,2.44921879 2.226562,2.44921879 0.632813,0 1.277344,-0.19921875 1.875,-0.59765625 z m -0.890625,-1.9804688 h -2.296875 c 0.05859,-0.8554687 0.621094,-1.40625 1.265625,-1.40625 0.667969,0 1.03125,0.4335938 1.03125,1.2421875 0,0.046875 0,0.1054688 0,0.1640625 z m 4.740234,-1.640625 c -0.328125,-0.140625 -0.726562,-0.2109375 -1.160156,-0.2109375 -1.136719,0 -1.757812,0.515625 -1.757812,1.3945313 0,0.6679687 0.433593,0.984375 1.277343,1.359375 0.65625,0.3046875 1.019532,0.4804687 1.019532,0.9960937 0,0.46875004 -0.363282,0.80859379 -0.9375,0.80859379 -0.292969,0 -0.5625,-0.0820313 -0.84375,-0.234375 L 63.079906,-1.4176641 h -0.480469 v 1.30078129 c 0.339844,0.12890625 0.785157,0.2109375 1.289063,0.2109375 1.183594,0 1.863281,-0.57421875 1.863281,-1.49999999 0,-0.3632813 -0.140625,-0.6679688 -0.375,-0.8554688 -0.328125,-0.2695312 -0.703125,-0.4101562 -1.054687,-0.5742187 -0.5625,-0.2695313 -0.84375,-0.4804688 -0.84375,-0.9140625 0,-0.4453125 0.292968,-0.7148438 0.820312,-0.7148438 0.234375,0 0.480469,0.070312 0.738281,0.2109375 l 0.08203,0.703125 h 0.480468 z m 5.027344,3.6210938 c -0.574219,0.37499999 -1.066406,0.57421874 -1.570312,0.57421874 -0.996094,0 -1.664063,-0.75000004 -1.664063,-2.02734374 0,-0.035156 0,-0.070312 0,-0.1171875 h 3.222656 c 0.01172,-0.1054688 0.01172,-0.1992188 0.01172,-0.3046875 0,-1.21875 -0.714844,-1.9570313 -1.792969,-1.9570313 -1.335937,0 -2.308593,1.0195313 -2.308593,2.53125 0,1.45312504 0.914062,2.44921879 2.226562,2.44921879 0.632813,0 1.277344,-0.19921875 1.875,-0.59765625 z m -0.890625,-1.9804688 h -2.296875 c 0.05859,-0.8554687 0.621094,-1.40625 1.265625,-1.40625 0.667969,0 1.03125,0.4335938 1.03125,1.2421875 0,0.046875 0,0.1054688 0,0.1640625 z m 4.646485,2.46093754 0.128906,0.5742187475 h 1.40625 V -0.36297656 l -0.527344,-0.046875 -0.1875,-0.15234375 V -3.4567266 c 0,-1.0078125 -0.433594,-1.4296875 -1.476562,-1.4296875 -1.253907,0 -2.015625,0.515625 -2.015625,1.125 0,0.234375 0.08203,0.3046875 0.304687,0.3046875 h 0.691406 v -0.8320312 c 0.269532,-0.1171875 0.503907,-0.1640625 0.761719,-0.1640625 0.714844,0 0.914063,0.328125 0.914063,1.1132812 v 0.3164063 c -1.992188,0.4804687 -2.90625,0.7851562 -2.90625,1.8164062 0,0.75000004 0.480468,1.27734379 1.277343,1.27734379 0.46875,0 0.996094,-0.22265625 1.628907,-0.64453125 z m 0,-0.33984375 c -0.503907,0.28125 -0.902344,0.4453125 -1.230469,0.4453125 -0.503906,0 -0.796875,-0.328125 -0.796875,-0.82031249 0,-0.7265625 0.621094,-0.9960938 2.027344,-1.3828125 z m 2.027343,0.9140624975 h 2.390625 V -0.36297656 l -0.691406,-0.046875 -0.175781,-0.15234375 V -3.4215703 c 0.410156,-0.46875 0.761719,-0.7265625 1.089844,-0.7265625 0.210937,0 0.375,0.082031 0.503906,0.2460937 h 0.328125 v -0.8554687 c -0.210938,-0.09375 -0.398438,-0.1289063 -0.597656,-0.1289063 -0.08203,0 -0.175782,0 -0.257813,0.011719 -0.351562,0.2929687 -0.714844,0.609375 -1.066406,0.9726562 v -0.9375 h -0.375 l -1.148438,0.3515625 v 0.3164063 h 0.703125 v 3.60937499 l -0.175781,0.15234375 -0.527344,0.046875 z M 84.14143,-0.42157031 v -0.515625 c -0.410157,0.28125 -0.820313,0.421875 -1.265625,0.421875 -1.03125,0 -1.6875,-0.72656249 -1.6875,-1.95703129 0,-1.2539062 0.609375,-2.015625 1.464843,-2.015625 0.164063,0 0.328125,0.046875 0.480469,0.140625 v 0.8085938 c 0.140625,0.1054687 0.292969,0.1523437 0.445313,0.1523437 0.339843,0 0.550781,-0.2109375 0.550781,-0.5273437 0,-0.5742188 -0.527344,-0.9726563 -1.488281,-0.9726563 -1.394532,0 -2.367188,0.9960938 -2.367188,2.484375 0,1.47656254 0.890625,2.47265629 2.25,2.47265629 0.539063,0 1.078125,-0.17578125 1.617188,-0.4921875 z m 1.617187,-6.91406249 -1.21875,0.3632812 v 0.3046875 h 0.773438 v 6.10546879 l -0.175782,0.15234375 -0.539062,0.046875 V 3.046875e-4 h 2.179687 V -0.36297656 l -0.46875,-0.046875 -0.175781,-0.15234375 V -3.9020391 c 0.433594,-0.2226562 0.796875,-0.328125 1.113281,-0.328125 0.738282,0 1.007813,0.2929688 1.007813,1.0195313 v 2.64843749 l -0.164063,0.15234375 -0.46875,0.046875 V 3.046875e-4 h 2.167969 V -0.36297656 l -0.527344,-0.046875 -0.175781,-0.15234375 V -3.3746953 c 0,-0.9960938 -0.46875,-1.5117188 -1.335937,-1.5117188 -0.433594,0 -0.949219,0.2226563 -1.617188,0.5976563 v -3.046875 z m 0,0"
       style="fill:#0072b2;fill-opacity:1;fill-rule:nonzero;stroke:none"
       aria-label="Exploratoryresearch"
       transform="matrix(0,-1.3333333,1.3333333,0,21.816,153.93467)" />
    <path
       id="path17"
       d="M 99.21382,56.69362 V -52.03113"
       style="fill:none;stroke:#d55e00;stroke-width:0.79701;stroke-linecap:butt;stroke-linejoin:miter;stroke-miterlimit:10;stroke-dasharray:none;stroke-opacity:1"
       transform="matrix(1.3333333,0,0,-1.3333333,161.96133,93.952)" />
    <path
       id="path18"
       d="M 4.66248,0 C 3.28098,0.25902 1.0361,1.0361 -0.51805,1.94269 V -1.94269 C 1.0361,-1.0361 3.28098,-0.25902 4.66248,0"
       style="fill:#d55e00;fill-opacity:1;fill-rule:nonzero;stroke:none"
       transform="matrix(0,1.3333333,1.3333333,0,294.24643,163.32684)" />
    <path
       id="path19"
       d="M 2.7881172,-6.6795781 H 0.32717969 v 0.3984375 l 0.57421875,0.058594 0.16406246,0.140625 v 5.48437503 l -0.16406246,0.140625 -0.57421875,0.046875 V 1.09375e-4 H 2.7881172 c 0.9960937,0 1.7578125,-0.105468745 2.4257812,-0.621093745 0.8203125,-0.60937503 1.2539063,-1.53515623 1.2539063,-2.73046873 0,-2.0859375 -1.3242188,-3.328125 -3.6796875,-3.328125 z m -0.8320313,0.4570312 h 0.796875 c 1.8164063,0 2.7070313,0.9375 2.7070313,2.8710938 0,1.9335937 -0.890625,2.89453123 -2.7070313,2.89453123 h -0.796875 z m 9.4130861,5.1679688 c -0.574219,0.37499998 -1.066406,0.57421873 -1.5703126,0.57421873 -0.9960938,0 -1.6640625,-0.75000003 -1.6640625,-2.02734373 0,-0.035156 0,-0.070312 0,-0.1171875 h 3.2226561 c 0.01172,-0.1054688 0.01172,-0.1992188 0.01172,-0.3046875 0,-1.21875 -0.714844,-1.9570313 -1.7929689,-1.9570313 -1.3359375,0 -2.3085937,1.0195313 -2.3085937,2.53125 0,1.45312503 0.9140625,2.44921878 2.2265625,2.44921878 0.6328121,0 1.2773441,-0.19921875 1.8750001,-0.59765625 z M 10.478547,-3.0350469 H 8.1816719 c 0.058594,-0.8554687 0.6210937,-1.40625 1.265625,-1.40625 0.6679691,0 1.0312501,0.4335938 1.0312501,1.2421875 0,0.046875 0,0.1054688 0,0.1640625 z m 5.138672,-3.6328125 v 1.875 c -0.316407,-0.070312 -0.609375,-0.1054687 -0.890625,-0.1054687 -1.511719,0 -2.566407,1.0664062 -2.566407,2.6601562 0,1.39453128 0.832032,2.33203128 1.921875,2.33203128 0.539063,0 1.019532,-0.19921875 1.535157,-0.609375 V 1.09375e-4 h 1.464843 V -0.36317187 l -0.46875,-0.046875 -0.175781,-0.15234375 V -7.3358281 h -0.375 l -1.21875,0.3632812 v 0.3046875 z m 0,5.77734378 c -0.375,0.234375 -0.726563,0.3515625 -1.089844,0.3515625 -0.902344,0 -1.5,-0.70312498 -1.5,-1.87499998 0,-1.2421875 0.703125,-2.0507813 1.710937,-2.0507813 0.234375,0 0.539063,0.058594 0.878907,0.1640625 z m 3.225586,-3.99609378 -1.160157,0.3632813 v 0.3046875 h 0.703125 v 2.7890625 c 0,0.99609373 0.480469,1.53515623 1.335938,1.53515623 0.492187,0 1.019531,-0.234375 1.617187,-0.66796875 V 1.09375e-4 h 1.476563 V -0.36317187 l -0.46875,-0.046875 -0.175781,-0.15234375 V -4.8866094 h -0.386719 l -1.148438,0.3632813 v 0.3046875 h 0.703125 v 3.38671873 c -0.410156,0.19921875 -0.785156,0.29296875 -1.160156,0.29296875 -0.65625,0 -0.960937,-0.33984375 -0.960937,-1.05468748 v -3.2929688 z m 8.481445,4.46484378 v -0.515625 c -0.410156,0.28125 -0.820313,0.421875 -1.265625,0.421875 -1.03125,0 -1.6875,-0.72656248 -1.6875,-1.95703128 0,-1.2539062 0.609375,-2.015625 1.464844,-2.015625 0.164062,0 0.328125,0.046875 0.480468,0.140625 v 0.8085938 c 0.140625,0.1054687 0.292969,0.1523437 0.445313,0.1523437 0.339844,0 0.550781,-0.2109375 0.550781,-0.5273437 0,-0.5742188 -0.527344,-0.9726563 -1.488281,-0.9726563 -1.394531,0 -2.367188,0.9960938 -2.367188,2.484375 0,1.47656253 0.890625,2.47265628 2.25,2.47265628 0.539063,0 1.078125,-0.17578125 1.617188,-0.4921875 z m 1.089844,-3.77343748 v 3.22265623 c 0,0.703125 0.210937,1.0078125 1.03125,1.0078125 0.386718,0 0.84375,-0.0703125 1.3125,-0.22265625 v -0.375 c -0.234375,0.0585938 -0.46875,0.0820312 -0.691407,0.0820312 -0.703125,0 -0.832031,-0.328125 -0.832031,-1.07812508 v -2.6367186 h 1.523438 v -0.46875 h -1.523438 v -1.0546875 h -0.363281 l -0.433594,0.9257812 -0.65625,0.2929688 v 0.3046875 z m 3.984375,-2.859375 c -0.316407,0 -0.574219,0.2460937 -0.574219,0.5742187 0,0.328125 0.257812,0.5742188 0.574219,0.5742188 0.316406,0 0.574218,-0.2460938 0.574218,-0.5742188 0,-0.3164062 -0.257812,-0.5742187 -0.574218,-0.5742187 z m -0.03516,2.2148437 -1.148437,0.3515625 v 0.3164063 h 0.691406 v 3.60937498 l -0.164062,0.15234375 -0.527344,0.046875 V 1.09375e-4 h 2.238281 V -0.36317187 l -0.539062,-0.046875 -0.175782,-0.15234375 V -4.8397344 Z m 1.242188,0.046875 v 0.375 l 0.609375,0.058594 1.59375,4.359374975 h 0.5625 l 1.746094,-4.347656275 0.585937,-0.070312 v -0.375 h -1.757812 v 0.375 l 0.527343,0.035156 0.08203,0.1640625 -1.277344,3.25781248 -1.160156,-3.25781248 0.117187,-0.1640625 0.527344,-0.035156 v -0.375 z m 9.433594,3.7382813 c -0.574219,0.37499998 -1.066407,0.57421873 -1.570313,0.57421873 -0.996094,0 -1.664062,-0.75000003 -1.664062,-2.02734373 0,-0.035156 0,-0.070312 0,-0.1171875 h 3.222656 c 0.01172,-0.1054688 0.01172,-0.1992188 0.01172,-0.3046875 0,-1.21875 -0.714844,-1.9570313 -1.792969,-1.9570313 -1.335938,0 -2.308594,1.0195313 -2.308594,2.53125 0,1.45312503 0.914063,2.44921878 2.226563,2.44921878 0.632812,0 1.277343,-0.19921875 1.875,-0.59765625 z m -0.890625,-1.9804688 h -2.296875 c 0.05859,-0.8554687 0.621093,-1.40625 1.265625,-1.40625 0.667968,0 1.03125,0.4335938 1.03125,1.2421875 0,0.046875 0,0.1054688 0,0.1640625 z M 46.54007,1.09375e-4 h 2.390625 V -0.36317187 l -0.691406,-0.046875 -0.175781,-0.15234375 V -3.4217656 c 0.410156,-0.46875 0.761719,-0.7265625 1.089844,-0.7265625 0.210937,0 0.375,0.082031 0.503906,0.2460937 h 0.328125 v -0.8554687 c -0.210938,-0.09375 -0.398438,-0.1289063 -0.597656,-0.1289063 -0.08203,0 -0.175782,0 -0.257813,0.011719 -0.351562,0.2929687 -0.714844,0.609375 -1.066406,0.9726562 v -0.9375 h -0.375 l -1.148438,0.3515625 v 0.3164063 h 0.703125 v 3.60937498 l -0.175781,0.15234375 -0.527344,0.046875 z M 54.505891,-1.0545781 c -0.574219,0.37499998 -1.066407,0.57421873 -1.570313,0.57421873 -0.996094,0 -1.664062,-0.75000003 -1.664062,-2.02734373 0,-0.035156 0,-0.070312 0,-0.1171875 h 3.222656 c 0.01172,-0.1054688 0.01172,-0.1992188 0.01172,-0.3046875 0,-1.21875 -0.714844,-1.9570313 -1.792969,-1.9570313 -1.335938,0 -2.308594,1.0195313 -2.308594,2.53125 0,1.45312503 0.914063,2.44921878 2.226563,2.44921878 0.632812,0 1.277343,-0.19921875 1.875,-0.59765625 z m -0.890625,-1.9804688 h -2.296875 c 0.05859,-0.8554687 0.621093,-1.40625 1.265625,-1.40625 0.667968,0 1.03125,0.4335938 1.03125,1.2421875 0,0.046875 0,0.1054688 0,0.1640625 z m 4.646484,2.46093753 0.128906,0.574218745 h 1.40625 V -0.36317187 l -0.527344,-0.046875 -0.1875,-0.15234375 V -3.4569219 c 0,-1.0078125 -0.433593,-1.4296875 -1.476562,-1.4296875 -1.253906,0 -2.015625,0.515625 -2.015625,1.125 0,0.234375 0.08203,0.3046875 0.304687,0.3046875 h 0.691407 v -0.8320312 c 0.269531,-0.1171875 0.503906,-0.1640625 0.761718,-0.1640625 0.714844,0 0.914063,0.328125 0.914063,1.1132812 v 0.3164063 c -1.992188,0.4804687 -2.90625,0.7851562 -2.90625,1.8164062 0,0.75000003 0.480469,1.27734378 1.277344,1.27734378 0.46875,0 0.996093,-0.22265625 1.628906,-0.64453125 z m 0,-0.33984375 c -0.503906,0.28125 -0.902344,0.4453125 -1.230469,0.4453125 -0.503906,0 -0.796875,-0.328125 -0.796875,-0.82031248 0,-0.7265625 0.621094,-0.9960938 2.027344,-1.3828125 z m 5.144531,-3.76171878 c -0.328125,-0.140625 -0.726562,-0.2109375 -1.160156,-0.2109375 -1.136719,0 -1.757813,0.515625 -1.757813,1.3945313 0,0.6679687 0.433594,0.984375 1.277344,1.359375 0.65625,0.3046875 1.019531,0.4804687 1.019531,0.9960937 0,0.46875003 -0.363281,0.80859378 -0.9375,0.80859378 -0.292968,0 -0.5625,-0.0820313 -0.84375,-0.234375 L 60.88675,-1.4178594 h -0.480469 v 1.30078128 c 0.339844,0.12890625 0.785156,0.2109375 1.289063,0.2109375 1.183593,0 1.863281,-0.57421875 1.863281,-1.49999998 0,-0.3632813 -0.140625,-0.6679688 -0.375,-0.8554688 -0.328125,-0.2695312 -0.703125,-0.4101562 -1.054688,-0.5742187 -0.5625,-0.2695313 -0.84375,-0.4804688 -0.84375,-0.9140625 0,-0.4453125 0.292969,-0.7148438 0.820313,-0.7148438 0.234375,0 0.480469,0.070312 0.738281,0.2109375 l 0.08203,0.703125 h 0.480469 z m 3.246094,-0.2109375 c -1.347656,0 -2.320313,0.9960938 -2.320313,2.484375 0,1.47656253 0.984375,2.49609378 2.320313,2.49609378 1.335937,0 2.320312,-1.01953125 2.320312,-2.49609378 0,-1.4765625 -0.984375,-2.484375 -2.320312,-2.484375 z m 0,0.421875 c 0.808594,0 1.382812,0.7734375 1.382812,2.0625 0,1.3007813 -0.574218,2.06250003 -1.382812,2.06250003 -0.796875,0 -1.382813,-0.77343753 -1.382813,-2.06250003 0,-1.2890625 0.574219,-2.0625 1.382813,-2.0625 z m 2.991211,4.464843775 h 2.179687 V -0.36317187 l -0.480468,-0.046875 -0.175782,-0.15234375 V -3.9022344 c 0.433594,-0.2226562 0.796875,-0.328125 1.125,-0.328125 0.738282,0 0.996094,0.2929688 0.996094,1.0195313 v 2.64843748 l -0.164062,0.15234375 -0.480469,0.046875 V 1.09375e-4 h 2.179687 V -0.36317187 l -0.539062,-0.046875 -0.164063,-0.15234375 V -3.3748906 c 0,-0.9960938 -0.480468,-1.5117188 -1.347656,-1.5117188 -0.421875,0 -0.9375,0.2226563 -1.605469,0.5976563 v -0.5507813 h -0.375 l -1.148437,0.3515625 v 0.3164063 h 0.703125 v 3.60937498 l -0.175781,0.15234375 -0.527344,0.046875 z M 76.534211,-7.0545781 c -0.316406,0 -0.574219,0.2460937 -0.574219,0.5742187 0,0.328125 0.257813,0.5742188 0.574219,0.5742188 0.316406,0 0.574219,-0.2460938 0.574219,-0.5742188 0,-0.3164062 -0.257813,-0.5742187 -0.574219,-0.5742187 z m -0.03516,2.2148437 -1.148438,0.3515625 v 0.3164063 h 0.691406 v 3.60937498 l -0.164062,0.15234375 -0.527344,0.046875 V 1.09375e-4 h 2.238281 V -0.36317187 l -0.539062,-0.046875 -0.175781,-0.15234375 V -4.8397344 Z m 1.59375,4.839843775 h 2.179687 V -0.36317187 l -0.480469,-0.046875 -0.175781,-0.15234375 V -3.9022344 c 0.433594,-0.2226562 0.796875,-0.328125 1.125,-0.328125 0.738281,0 0.996094,0.2929688 0.996094,1.0195313 v 2.64843748 l -0.164063,0.15234375 -0.480468,0.046875 V 1.09375e-4 h 2.179687 V -0.36317187 l -0.539062,-0.046875 -0.164063,-0.15234375 V -3.3748906 c 0,-0.9960938 -0.480469,-1.5117188 -1.347656,-1.5117188 -0.421875,0 -0.9375,0.2226563 -1.605469,0.5976563 v -0.5507813 h -0.375 l -1.148437,0.3515625 v 0.3164063 h 0.703125 v 3.60937498 l -0.175782,0.15234375 -0.527343,0.046875 z m 9.03223,-4.617187475 c -0.386719,-0.1875 -0.75,-0.2695313 -1.125,-0.2695313 -1.183594,0 -1.933594,0.6679688 -1.933594,1.640625 0,0.75 0.46875,1.3359375 1.230469,1.5 -0.316406,0.3867188 -0.480469,0.6914063 -0.480469,0.94921878 0,0.1640625 0.04687,0.3046875 0.105469,0.4453125 -0.679687,0.1171875 -1.078125,0.59765625 -1.078125,1.2421875 0,0.79687502 0.65625,1.27734372 1.804688,1.27734372 0.75,0 1.441406,-0.2226562 1.96875,-0.65625 0.386718,-0.3164062 0.597656,-0.74999997 0.597656,-1.11328122 0,-0.73828125 -0.515625,-1.04296875 -1.6875,-1.23046875 l -0.960938,-0.140625 C 85.554719,-1.0897344 85.543,-1.1600469 85.543,-1.2186406 c 0,-0.1523438 0.04687,-0.3046875 0.117187,-0.4453125 0.05859,0 0.117188,0 0.164063,0 1.160156,0 1.910156,-0.6679688 1.910156,-1.5585938 0,-0.3398437 -0.09375,-0.6328125 -0.28125,-0.9257812 H 88.543 v -0.46875 z m -1.230469,0.1171875 c 0.574219,0 0.972657,0.46875 0.972657,1.21875 0,0.75 -0.398438,1.2304687 -0.972657,1.2304687 -0.574218,0 -0.972656,-0.4804687 -0.972656,-1.2304687 0,-0.7617188 0.398438,-1.21875 0.972656,-1.21875 z m -0.398437,4.19531248 0.972656,0.1875 c 0.691406,0.12890625 1.007813,0.234375 1.007813,0.7734375 0,0.56250002 -0.597657,1.05468752 -1.476563,1.05468752 -0.820312,0 -1.359375,-0.4570313 -1.359375,-1.03125002 0,-0.4453125 0.304688,-0.80859375 0.855469,-0.984375 z m 0,0"
       style="fill:#d55e00;fill-opacity:1;fill-rule:nonzero;stroke:none"
       aria-label="Deductivereasoning"
       transform="matrix(0,-1.3333333,1.3333333,0,286.38267,153.05733)" />
    <path
       id="path20"
       d="M 5.8584844,-0.2349375 V -1.80525 h -0.5625 L 5.0850469,-0.7036875 4.9209844,-0.539625 c -0.3046875,0.09375 -0.5859375,0.12890625 -0.8671875,0.12890625 -1.6171875,0 -2.6015625,-1.11328125 -2.6015625,-3.01171875 0,-1.78125 0.9726562,-2.859375 2.4492187,-2.859375 0.3867188,0 0.75,0.09375 1.1132813,0.2695313 L 5.1436406,-5.8365 5.2959844,-4.9341562 h 0.5625 v -1.5351563 c -0.7265625,-0.2226562 -1.3828125,-0.3398437 -1.96875,-0.3398437 -2.0742188,0 -3.45703128,1.3945312 -3.45703128,3.4570312 0,1.3125 0.65624998,2.4609375 1.72265628,3.0703125 0.4570312,0.2578125 1.03125,0.3984375 1.6875,0.3984375 0.6679687,0 1.359375,-0.1171875 2.015625,-0.3515625 z m 3.1201172,-4.6523437 c -1.3476563,0 -2.3203125,0.9960937 -2.3203125,2.484375 0,1.47656245 0.984375,2.4960937 2.3203125,2.4960937 1.3359374,0 2.3203124,-1.01953125 2.3203124,-2.4960937 0,-1.4765625 -0.984375,-2.484375 -2.3203124,-2.484375 z m 0,0.421875 c 0.8085937,0 1.3828124,0.7734375 1.3828124,2.0625 0,1.3007812 -0.5742187,2.06249995 -1.3828124,2.06249995 -0.796875,0 -1.3828125,-0.77343745 -1.3828125,-2.06249995 0,-1.2890625 0.5742187,-2.0625 1.3828125,-2.0625 z M 11.969812,-5.625e-4 H 14.1495 v -0.36328125 l -0.480469,-0.046875 -0.175781,-0.15234375 v -3.3398437 c 0.433594,-0.2226563 0.796875,-0.328125 1.125,-0.328125 0.738281,0 0.996094,0.2929687 0.996094,1.0195312 v 2.6484375 l -0.164063,0.15234375 -0.480469,0.046875 V -5.625e-4 H 17.1495 v -0.36328125 l -0.539063,-0.046875 -0.164062,-0.15234375 v -2.8125 c 0,-0.9960937 -0.480469,-1.5117187 -1.347656,-1.5117187 -0.421875,0 -0.9375,0.2226562 -1.605469,0.5976562 v -0.5507812 h -0.375 l -1.148438,0.3515625 v 0.3164062 h 0.703125 v 3.609375 l -0.175781,0.15234375 -0.527344,0.046875 z m 8.53125,-6.3398437 c 0.292969,-0.1289063 0.433594,-0.2929688 0.433594,-0.5390625 0,-0.3164063 -0.257812,-0.5273438 -0.667969,-0.5273438 -1.054687,0 -1.945312,0.9960938 -1.945312,2.5898438 0,0.058594 0,0.1054687 0,0.1523437 l -0.632813,0.1640625 v 0.3046875 h 0.632813 v 3.6328125 l -0.175781,0.15234375 -0.527344,0.046875 V -5.625e-4 h 2.203125 v -0.36328125 l -0.503906,-0.046875 -0.164063,-0.15234375 V -4.195875 h 2.132813 v 3.6328125 l -0.175782,0.15234375 -0.539062,0.046875 V -5.625e-4 h 2.167969 v -0.36328125 l -0.46875,-0.046875 -0.152344,-0.15234375 v -4.3710937 h -0.328125 l -0.574219,0.2695312 h -2.0625 v -0.7265625 c 0,-0.796875 0.199219,-1.2890625 0.585938,-1.5117187 z m 0.796875,-0.082031 c 0,0.28125 0.234375,0.515625 0.515625,0.515625 0.292969,0 0.527344,-0.234375 0.527344,-0.515625 0,-0.28125 -0.234375,-0.515625 -0.527344,-0.515625 -0.292968,0 -0.515625,0.2226563 -0.515625,0.515625 z m 2.050782,6.421875 h 2.390625 v -0.36328125 l -0.691407,-0.046875 -0.175781,-0.15234375 v -2.859375 C 25.282312,-3.8911875 25.633875,-4.149 25.962,-4.149 c 0.210937,0 0.375,0.082031 0.503906,0.2460938 h 0.328125 V -4.758375 c -0.210937,-0.09375 -0.398437,-0.1289062 -0.597656,-0.1289062 -0.08203,0 -0.175781,0 -0.257813,0.011719 -0.351562,0.2929688 -0.714843,0.609375 -1.066406,0.9726563 v -0.9375 h -0.375 l -1.148437,0.3515625 v 0.3164062 h 0.703125 v 3.609375 l -0.175782,0.15234375 -0.527343,0.046875 z m 8.024414,-4.21875 c -0.234375,-0.4453125 -0.609375,-0.6679687 -1.101563,-0.6679687 -0.410156,0 -0.925781,0.1992187 -1.59375,0.5976562 v -0.5507812 h -0.375 l -1.148437,0.3515625 v 0.3164062 h 0.703125 v 3.609375 l -0.175781,0.15234375 -0.527344,0.046875 V -5.625e-4 h 2.179687 v -0.36328125 l -0.480468,-0.046875 -0.175782,-0.15234375 v -3.3398437 c 0.445313,-0.2226563 0.808594,-0.328125 1.136719,-0.328125 0.597656,0 0.878906,0.328125 0.878906,1.0195312 v 2.6484375 l -0.164062,0.15234375 -0.480469,0.046875 V -5.625e-4 h 2.121094 v -0.36328125 l -0.46875,-0.046875 -0.175781,-0.15234375 v -3.3398437 c 0.421875,-0.2109375 0.808593,-0.328125 1.125,-0.328125 0.609375,0 0.890625,0.328125 0.890625,1.0195312 v 2.6484375 l -0.175782,0.15234375 -0.46875,0.046875 V -5.625e-4 h 2.167969 v -0.36328125 l -0.527344,-0.046875 -0.164062,-0.15234375 v -2.8125 c 0,-0.984375 -0.503906,-1.5117187 -1.289063,-1.5117187 -0.398437,0 -0.960937,0.2226562 -1.710937,0.667969 z m 7.204101,3.64453125 0.128907,0.57421875 h 1.40625 v -0.36328125 l -0.527344,-0.046875 -0.1875,-0.15234375 v -2.8945312 c 0,-1.0078125 -0.433594,-1.4296875 -1.476563,-1.4296875 -1.253906,0 -2.015625,0.515625 -2.015625,1.125 0,0.234375 0.08203,0.3046875 0.304688,0.3046875 h 0.691406 V -4.289625 c 0.269531,-0.1171875 0.503906,-0.1640625 0.761719,-0.1640625 0.714844,0 0.914062,0.328125 0.914062,1.1132813 V -3.024 c -1.992187,0.4804688 -2.90625,0.7851563 -2.90625,1.8164063 0,0.74999995 0.480469,1.2773437 1.277344,1.2773437 0.46875,0 0.996094,-0.22265625 1.628906,-0.64453095 z m 0,-0.33984375 c -0.503906,0.28125 -0.902343,0.4453125 -1.230468,0.4453125 -0.503907,0 -0.796875,-0.328125 -0.796875,-0.8203125 0,-0.7265625 0.621093,-0.9960937 2.027343,-1.3828125 z m 2.601563,-3.28125 v 3.22265625 c 0,0.703125 0.210937,1.0078125 1.03125,1.0078125 0.386719,0 0.84375,-0.0703125 1.3125,-0.22265625 v -0.375 c -0.234375,0.0585938 -0.46875,0.0820313 -0.691406,0.0820313 -0.703125,0 -0.832032,-0.328125 -0.832032,-1.078125 V -4.195875 h 1.523438 v -0.46875 h -1.523438 v -1.0546875 h -0.363281 l -0.433594,0.9257813 -0.65625,0.2929687 v 0.3046875 z m 5.129883,-0.6914062 c -1.347657,0 -2.320313,0.9960937 -2.320313,2.484375 0,1.47656245 0.984375,2.4960937 2.320313,2.4960937 1.335937,0 2.320312,-1.01953125 2.320312,-2.4960937 0,-1.4765625 -0.984375,-2.484375 -2.320312,-2.484375 z m 0,0.421875 c 0.808593,0 1.382812,0.7734375 1.382812,2.0625 0,1.3007812 -0.574219,2.06249995 -1.382812,2.06249995 -0.796875,0 -1.382813,-0.77343745 -1.382813,-2.06249995 0,-1.2890625 0.574219,-2.0625 1.382813,-2.0625 z m 2.991211,4.4648437 h 2.390625 v -0.36328125 l -0.691407,-0.046875 -0.175781,-0.15234375 v -2.859375 C 51.233484,-3.8911875 51.585047,-4.149 51.913172,-4.149 c 0.210937,0 0.375,0.082031 0.503906,0.2460938 h 0.328125 V -4.758375 c -0.210937,-0.09375 -0.398437,-0.1289062 -0.597656,-0.1289062 -0.08203,0 -0.175781,0 -0.257813,0.011719 -0.351562,0.2929688 -0.714843,0.609375 -1.066406,0.9726563 v -0.9375 h -0.375 l -1.148437,0.3515625 v 0.3164062 h 0.703125 v 3.609375 l -0.175782,0.15234375 -0.527343,0.046875 z m 3.489257,-4.7929687 v 0.375 l 0.609375,0.058594 1.675782,4.32421875 c -0.246094,0.703125 -0.539063,1.19531255 -0.808594,1.48828125 l -0.960938,-0.375 c -0.164062,0.1523438 -0.257812,0.3398438 -0.257812,0.5390625 0,0.328125 0.269531,0.5507813 0.691406,0.5507813 0.644531,0 1.125,-0.5390625 1.59375,-1.66406255 l 1.992188,-4.85156245 0.574218,-0.070312 v -0.375 h -1.769531 v 0.375 l 0.539063,0.035156 0.08203,0.1640625 -1.253906,3.09375 -1.195313,-3.09375 0.128906,-0.1640625 0.527344,-0.035156 v -0.375 z m 8.018555,4.7929687 h 2.390625 v -0.36328125 l -0.691406,-0.046875 -0.175781,-0.15234375 v -2.859375 C 62.741297,-3.8911875 63.092859,-4.149 63.420984,-4.149 c 0.210938,0 0.375,0.082031 0.503907,0.2460938 h 0.328125 V -4.758375 c -0.210938,-0.09375 -0.398438,-0.1289062 -0.597657,-0.1289062 -0.08203,0 -0.175781,0 -0.257812,0.011719 -0.351563,0.2929688 -0.714844,0.609375 -1.066406,0.9726563 v -0.9375 h -0.375 l -1.148438,0.3515625 v 0.3164062 h 0.703125 v 3.609375 l -0.175781,0.15234375 -0.527344,0.046875 z m 7.96582,-1.0546875 c -0.574218,0.375 -1.066406,0.57421875 -1.570312,0.57421875 -0.996094,0 -1.664063,-0.74999995 -1.664063,-2.02734375 0,-0.035156 0,-0.070312 0,-0.1171875 h 3.222657 c 0.01172,-0.1054687 0.01172,-0.1992187 0.01172,-0.3046875 0,-1.21875 -0.714843,-1.9570312 -1.792968,-1.9570312 -1.335938,0 -2.308594,1.0195312 -2.308594,2.53125 0,1.45312495 0.914062,2.4492187 2.226562,2.4492187 0.632813,0 1.277344,-0.19921875 1.875,-0.59765625 z m -0.890625,-1.9804687 h -2.296875 c 0.05859,-0.8554688 0.621094,-1.40625 1.265625,-1.40625 0.667969,0 1.03125,0.4335937 1.03125,1.2421875 0,0.046875 0,0.1054687 0,0.1640625 z m 4.740235,-1.640625 c -0.328125,-0.140625 -0.726563,-0.2109375 -1.160156,-0.2109375 -1.136719,0 -1.757813,0.515625 -1.757813,1.3945312 0,0.6679688 0.433594,0.984375 1.277344,1.359375 0.65625,0.3046875 1.019531,0.4804688 1.019531,0.9960938 0,0.46874995 -0.363281,0.8085937 -0.9375,0.8085937 -0.292969,0 -0.5625,-0.0820313 -0.84375,-0.234375 l -0.117187,-0.855469 H 69.623133 V -0.11775 c 0.339844,0.12890625 0.785156,0.2109375 1.289062,0.2109375 1.183594,0 1.863282,-0.57421875 1.863282,-1.5 0,-0.3632812 -0.140625,-0.6679687 -0.375,-0.8554687 -0.328125,-0.2695313 -0.703125,-0.4101563 -1.054688,-0.5742188 -0.5625,-0.2695312 -0.84375,-0.4804687 -0.84375,-0.9140625 0,-0.4453125 0.292969,-0.7148437 0.820313,-0.7148437 0.234375,0 0.480468,0.070312 0.738281,0.2109375 l 0.08203,0.703125 h 0.480469 z m 5.027344,3.6210937 c -0.574219,0.375 -1.066407,0.57421875 -1.570313,0.57421875 -0.996094,0 -1.664062,-0.74999995 -1.664062,-2.02734375 0,-0.035156 0,-0.070312 0,-0.1171875 h 3.222656 c 0.01172,-0.1054687 0.01172,-0.1992187 0.01172,-0.3046875 0,-1.21875 -0.714844,-1.9570312 -1.792969,-1.9570312 -1.335938,0 -2.308594,1.0195312 -2.308594,2.53125 0,1.45312495 0.914063,2.4492187 2.226563,2.4492187 0.632812,0 1.277343,-0.19921875 1.875,-0.59765625 z m -0.890625,-1.9804687 h -2.296875 c 0.05859,-0.8554688 0.621093,-1.40625 1.265625,-1.40625 0.667968,0 1.03125,0.4335937 1.03125,1.2421875 0,0.046875 0,0.1054687 0,0.1640625 z m 4.646484,2.46093745 0.128906,0.57421875 h 1.40625 v -0.36328125 l -0.527344,-0.046875 -0.1875,-0.15234375 v -2.8945312 c 0,-1.0078125 -0.433593,-1.4296875 -1.476562,-1.4296875 -1.253906,0 -2.015625,0.515625 -2.015625,1.125 0,0.234375 0.08203,0.3046875 0.304687,0.3046875 h 0.691407 V -4.289625 c 0.269531,-0.1171875 0.503906,-0.1640625 0.761718,-0.1640625 0.714844,0 0.914063,0.328125 0.914063,1.1132813 V -3.024 c -1.992188,0.4804688 -2.90625,0.7851563 -2.90625,1.8164063 0,0.74999995 0.480469,1.2773437 1.277344,1.2773437 0.46875,0 0.996093,-0.22265625 1.628906,-0.64453095 z m 0,-0.33984375 c -0.503906,0.28125 -0.902344,0.4453125 -1.230469,0.4453125 -0.503906,0 -0.796875,-0.328125 -0.796875,-0.8203125 0,-0.7265625 0.621094,-0.9960937 2.027344,-1.3828125 z m 2.027344,0.9140625 h 2.390625 v -0.36328125 l -0.691407,-0.046875 -0.175781,-0.15234375 v -2.859375 C 85.367273,-3.8911875 85.718836,-4.149 86.046961,-4.149 c 0.210937,0 0.375,0.082031 0.503906,0.2460938 h 0.328125 V -4.758375 c -0.210937,-0.09375 -0.398437,-0.1289062 -0.597656,-0.1289062 -0.08203,0 -0.175781,0 -0.257813,0.011719 -0.351562,0.2929688 -0.714843,0.609375 -1.066406,0.9726563 v -0.9375 h -0.375 l -1.148437,0.3515625 v 0.3164062 h 0.703125 v 3.609375 l -0.175782,0.15234375 -0.527343,0.046875 z m 7.731445,-0.421875 v -0.515625 c -0.410156,0.28125 -0.820313,0.421875 -1.265625,0.421875 -1.03125,0 -1.6875,-0.7265625 -1.6875,-1.9570312 0,-1.2539063 0.609375,-2.015625 1.464844,-2.015625 0.164062,0 0.328125,0.046875 0.480468,0.140625 v 0.8085937 c 0.140625,0.1054688 0.292969,0.1523438 0.445313,0.1523438 0.339844,0 0.550781,-0.2109375 0.550781,-0.5273438 0,-0.5742187 -0.527344,-0.9726562 -1.488281,-0.9726562 -1.394531,0 -2.367188,0.9960937 -2.367188,2.484375 0,1.47656245 0.890625,2.4726562 2.25,2.4726562 0.539063,0 1.078125,-0.17578125 1.617188,-0.4921875 z m 1.617187,-6.9140625 -1.21875,0.3632813 v 0.3046875 H 92.337 v 6.1054687 l -0.175781,0.15234375 -0.539063,0.046875 V -5.625e-4 h 2.179688 v -0.36328125 l -0.46875,-0.046875 -0.175782,-0.15234375 v -3.3398437 c 0.433594,-0.2226563 0.796875,-0.328125 1.113282,-0.328125 0.738281,0 1.007812,0.2929687 1.007812,1.0195312 v 2.6484375 l -0.164062,0.15234375 -0.46875,0.046875 V -5.625e-4 h 2.167968 v -0.36328125 l -0.527343,-0.046875 -0.175782,-0.15234375 v -2.8125 c 0,-0.9960937 -0.46875,-1.5117187 -1.335937,-1.5117187 -0.433594,0 -0.949219,0.2226562 -1.617188,0.5976562 V -7.3365 Z m 0,0"
       style="fill:#d55e00;fill-opacity:1;fill-rule:nonzero;stroke:none"
       aria-label="Confrmatoryresearch"
       transform="matrix(0,-1.3333333,1.3333333,0,309.032,158.616)" />
  </g>
</svg>
